<?xml version="1.0" standalone="no"?>
<!DOCTYPE svg PUBLIC "-//W3C//DTD SVG 1.1//EN" "http://www.w3.org/Graphics/SVG/1.1/DTD/svg11.dtd" >
<svg xmlns="http://www.w3.org/2000/svg" xmlns:xlink="http://www.w3.org/1999/xlink" version="1.1">
<metadata></metadata>
<defs>
<font id="movistar_textbold" horiz-adv-x="1228" >
<font-face units-per-em="2048" ascent="1536" descent="-512" />
<missing-glyph horiz-adv-x="460" />
<glyph unicode="&#xfb01;" horiz-adv-x="1265" d="M29 813v178l172 10v140q0 153 73 235q57 64 151 93.5t241 29.5q161 0 274 -22v-209q-82 12 -199 12q-137 0 -192 -33.5t-55 -122.5v-120h643v-1004h-293v813h-350v-813h-293v813h-172z" />
<glyph unicode="&#xfb02;" horiz-adv-x="1265" d="M29 813v178l172 10v140q0 94 19.5 157.5t64.5 108.5q47 47 129.5 69.5t259.5 22.5q259 0 463 -24v-1475h-293v1270q-122 10 -185 10q-103 0 -137 -37q-28 -28 -28 -119v-120h217v-191h-217v-813h-293v813h-172z" />
<glyph horiz-adv-x="0" />
<glyph horiz-adv-x="682" />
<glyph unicode=" "  horiz-adv-x="460" />
<glyph unicode="&#x09;" horiz-adv-x="460" />
<glyph unicode="&#xa0;" horiz-adv-x="460" />
<glyph unicode="!" horiz-adv-x="593" d="M139 1401h307l-45 -963h-217zM141 113v24q0 75 37.5 108.5t112.5 33.5h14q75 0 112.5 -33.5t37.5 -108.5v-24q0 -75 -37.5 -108.5t-112.5 -33.5h-14q-75 0 -112.5 33.5t-37.5 108.5z" />
<glyph unicode="&#x22;" horiz-adv-x="976" d="M127 1401h285l-33 -541h-217zM565 1401h285l-33 -541h-217z" />
<glyph unicode="#" horiz-adv-x="1220" d="M109 418v186h163l35 193h-198v186h247l78 418h219l-78 -418h189l78 418h219l-78 -418h127v-186h-176l-33 -193h211v-186h-246l-78 -418h-219l74 418h-184l-78 -418h-219l78 418h-131zM494 604h186l35 193h-189z" />
<glyph unicode="$" d="M102 1018q0 180 110.5 281t301.5 122v217h186v-213q181 -10 312 -53v-242q-85 23 -196.5 38.5t-184.5 15.5q-228 0 -228 -152q0 -44 24.5 -76t66 -52t95.5 -36t114 -33t119.5 -37t113.5 -53t95.5 -77t66 -112.5t24.5 -156.5q0 -185 -116 -295q-113 -107 -306 -127v-239 h-186v235q-203 5 -391 70v246q212 -74 424 -74q274 0 274 170q0 44 -24.5 75.5t-66 51.5t-95.5 36.5t-114 33t-119.5 36.5t-113.5 53t-95.5 77t-66 113t-24.5 157z" />
<glyph unicode="%" horiz-adv-x="2045" d="M102 1001q0 207 91.5 316.5t273.5 109.5q183 0 276 -110t93 -316q0 -208 -93 -318t-276 -110q-182 0 -273.5 110t-91.5 318zM340 1001q0 -119 27.5 -176t99.5 -57t100.5 57t28.5 176q0 117 -28.5 174.5t-100.5 57.5q-71 0 -99 -57t-28 -175zM522 -29l748 1456h252 l-748 -1456h-252zM1210 397q0 208 92.5 318t274.5 110t274.5 -110t92.5 -318q0 -207 -92.5 -316.5t-274.5 -109.5t-274.5 109.5t-92.5 316.5zM1450 397q0 -118 27 -174.5t100 -56.5q72 0 100.5 57t28.5 174q0 119 -28.5 176.5t-100.5 57.5q-73 0 -100 -57t-27 -177z" />
<glyph unicode="&#x26;" horiz-adv-x="1419" d="M76 385q0 127 74 228.5t221 158.5q-80 89 -113 162.5t-33 155.5q0 151 102.5 244t270.5 93q163 0 259.5 -86t96.5 -231q0 -101 -65.5 -188t-183.5 -142l317 -336q31 44 59.5 126t36.5 143h203q-9 -106 -53 -225.5t-101 -196.5l191 -201l-166 -166l-184 185 q-177 -138 -437 -138q-224 0 -359.5 112.5t-135.5 301.5zM358 428q0 -101 69.5 -164t195.5 -63q134 0 235 63l-375 391q-58 -38 -91.5 -98.5t-33.5 -128.5zM467 1106q0 -49 28 -94.5t101 -118.5q74 60 105.5 107.5t31.5 103.5q0 55 -35 88t-98 33q-61 0 -97 -33t-36 -86z " />
<glyph unicode="'" horiz-adv-x="538" d="M127 1401h285l-33 -541h-217z" />
<glyph unicode="(" horiz-adv-x="735" d="M84 532q0 321 124.5 580t369.5 420l135 -154q-307 -314 -307 -846q0 -529 307 -843l-135 -154q-245 162 -369.5 419t-124.5 578z" />
<glyph unicode=")" horiz-adv-x="735" d="M23 -311q307 314 307 843q0 530 -307 844l135 154q245 -161 369 -419t124 -579t-124 -578.5t-369 -418.5z" />
<glyph unicode="*" horiz-adv-x="942" d="M57 1036l74 181l264 -115l-22 299h190l-16 -299l264 115l74 -181l-293 -82l196 -239l-147 -123l-170 260l-170 -260l-147 123l196 239z" />
<glyph unicode="+" d="M231 567v193h287v287h193v-287h286v-193h-286v-286h-193v286h-287z" />
<glyph unicode="," horiz-adv-x="489" d="M86 125q0 74 38.5 114t111.5 40h14q73 0 111 -40t38 -114v-55q0 -103 -14 -223t-31 -173h-147v291q-67 23 -94 58.5t-27 101.5z" />
<glyph unicode="-" horiz-adv-x="684" d="M94 410v243h496v-243h-496z" />
<glyph unicode="." horiz-adv-x="489" d="M88 113v24q0 75 37.5 108.5t112.5 33.5h14q75 0 112 -33.5t37 -108.5v-24q0 -75 -37 -108.5t-112 -33.5h-14q-75 0 -112.5 33.5t-37.5 108.5z" />
<glyph unicode="/" horiz-adv-x="983" d="M53 -29l617 1456h260l-617 -1456h-260z" />
<glyph unicode="0" d="M78 698q0 369 125.5 549t410.5 180t411 -180t126 -549t-126 -548t-411 -179t-410.5 179t-125.5 548zM383 698q0 -193 24 -300t72.5 -149t134.5 -42t135 42t73 149t24 300q0 194 -24 306t-73.5 160t-134.5 48t-134.5 -48t-73 -160t-23.5 -306z" />
<glyph unicode="1" d="M254 0v209h238v989h-228v199q168 24 326 24q109 0 151.5 -30.5t42.5 -108.5v-1073h201v-209h-731z" />
<glyph unicode="2" d="M147 66q0 64 18.5 112t63.5 103l273 331q126 152 173.5 233.5t47.5 164.5q0 89 -55 135q-62 53 -213 53q-127 0 -275 -27v218q156 38 326 38q289 0 420 -131q100 -100 100 -272q0 -128 -65 -246t-234 -303l-244 -266h566v-209h-893q-9 24 -9 66z" />
<glyph unicode="3" d="M180 4v221q141 -24 281 -24q161 0 231 47q76 51 76 162q0 103 -70 153q-38 27 -100 38t-172 11h-39v205h49q96 0 151.5 14t92.5 46q55 48 55 143q0 86 -47 127q-59 53 -221 53q-137 0 -274 -20v217q141 30 321 30q285 0 412 -127q96 -96 96 -258q0 -217 -186 -309 q235 -85 235 -346q0 -169 -98 -270q-140 -146 -455 -146q-183 0 -338 33z" />
<glyph unicode="4" d="M82 393q0 96 43 213l291 795h282l-315 -860h324v333h292v-333h164v-219h-164v-322h-292v322h-617q-8 28 -8 71z" />
<glyph unicode="5" d="M211 4v219q116 -22 258 -22q173 0 243 57t70 168q0 58 -11.5 96.5t-41 68.5t-84 44t-137.5 14h-285q-13 54 -10 158l25 594h766v-209h-515l-12 -315h74q274 0 404 -107.5t130 -331.5q0 -229 -129.5 -348t-414.5 -119q-178 0 -330 33z" />
<glyph unicode="6" d="M127 635q0 467 190 657q135 135 412 135q136 0 289 -26v-223q-120 20 -221 20q-104 0 -169.5 -17t-105.5 -57q-82 -82 -88 -299q135 72 303 72q188 0 292 -113t104 -323q0 -235 -127 -362.5t-369 -127.5q-272 0 -391 166.5t-119 497.5zM430 578q0 -205 47.5 -294 t165.5 -89q199 0 199 256q0 131 -46 178t-161 47q-105 0 -205 -21v-77z" />
<glyph unicode="7" d="M170 1192v209h913q15 -24 15 -84q0 -111 -33 -201l-393 -1116h-314l465 1192h-653z" />
<glyph unicode="8" d="M113 350q0 236 235 359q-100 64 -144 141t-44 184q0 179 124 286t328 107t322.5 -96.5t118.5 -257.5q0 -96 -54.5 -179.5t-146.5 -141.5q143 -72 203.5 -155.5t60.5 -211.5q0 -194 -133.5 -304t-374.5 -110q-240 0 -367.5 106t-127.5 273zM401 375q0 -81 55 -128.5 t156 -47.5q100 0 156.5 46t56.5 117q0 64 -42.5 110t-161.5 101l-91 41q-129 -113 -129 -239zM434 1061q0 -60 43.5 -107t147.5 -96l30 -14q131 99 131 203q0 71 -46 115t-130 44q-76 0 -126 -38t-50 -107z" />
<glyph unicode="9" d="M96 938q0 235 126.5 362t369.5 127q272 0 391 -166t119 -497q0 -467 -191 -658q-135 -135 -411 -135q-130 0 -289 27v223q120 -20 221 -20q105 0 170 16.5t105 56.5q82 82 88 299q-133 -71 -303 -71q-188 0 -292 113t-104 323zM387 948q0 -131 46 -178t161 -47 q110 0 205 20v78q0 205 -47.5 294t-165.5 89q-199 0 -199 -256z" />
<glyph unicode=":" horiz-adv-x="489" d="M88 113v24q0 75 37.5 108.5t112.5 33.5h14q75 0 112 -33.5t37 -108.5v-24q0 -75 -37 -108.5t-112 -33.5h-14q-75 0 -112.5 33.5t-37.5 108.5zM88 686v25q0 75 37 108t113 33h14q75 0 112 -33t37 -108v-25q0 -75 -37 -108t-112 -33h-14q-76 0 -113 33t-37 108z" />
<glyph unicode=";" horiz-adv-x="489" d="M88 125q0 74 38.5 114t111.5 40h14q73 0 111 -40t38 -114v-55q0 -103 -14 -223t-31 -173h-147v291q-67 23 -94 58.5t-27 101.5zM88 686v25q0 75 37 108t113 33h14q75 0 112 -33t37 -108v-25q0 -75 -37 -108t-112 -33h-14q-76 0 -113 33t-37 108z" />
<glyph unicode="&#x3c;" d="M231 569v189l766 379v-217l-551 -254l551 -246v-230z" />
<glyph unicode="=" d="M231 371v192h766v-192h-766zM231 764v192h766v-192h-766z" />
<glyph unicode="&#x3e;" d="M231 190v230l551 246l-551 254v217l766 -379v-189z" />
<glyph unicode="?" horiz-adv-x="890" d="M74 1366q69 27 158.5 44t166.5 17q217 0 328 -94.5t111 -269.5q0 -63 -16 -117.5t-42 -96t-58.5 -79t-67 -74t-64.5 -73.5t-54 -84t-34 -99h-203q-6 34 -6 64q0 21 3.5 42t13.5 44t17 39.5t23.5 43t23.5 37.5t27.5 40.5t24.5 35.5q49 69 74.5 122.5t25.5 117.5 q0 78 -41 119q-48 45 -159 45q-91 0 -213 -37zM246 113v24q0 75 37 108.5t112 33.5h15q75 0 112 -33.5t37 -108.5v-24q0 -75 -37 -108.5t-112 -33.5h-15q-75 0 -112 33.5t-37 108.5z" />
<glyph unicode="@" horiz-adv-x="1617" d="M78 694q0 336 202 534.5t554 198.5q167 0 302 -50.5t223 -140t134.5 -209.5t46.5 -261q0 -101 -22.5 -184t-67.5 -146.5t-119 -99t-172 -35.5q-129 0 -196 76h-5q-39 -31 -99 -51.5t-116 -20.5q-112 0 -178.5 65t-66.5 173q0 131 74 191.5t243 60.5h117v8q0 63 -32 83.5 t-109 20.5q-115 0 -209 -22l-11 172q143 30 265 30q170 0 241 -86q56 -65 56 -196v-326q18 -6 43 -6q84 0 122.5 63t38.5 189q0 244 -130 377t-378 133q-250 0 -389 -138.5t-139 -391.5q0 -279 150 -412q151 -139 481 -139q164 0 323 30l11 -176q-164 -37 -379 -37 q-390 0 -588 174q-221 195 -221 549zM707 557q0 -78 102 -78q56 0 123 23v139h-111q-63 0 -88.5 -19.5t-25.5 -64.5z" />
<glyph unicode="A" horiz-adv-x="1347" d="M10 0l469 1401h352l506 -1401h-342l-116 352h-455l-109 -352h-305zM498 584h303l-154 467h-4z" />
<glyph unicode="B" horiz-adv-x="1292" d="M152 0v1401h456q148 0 245 -25.5t159 -79.5q98 -86 98 -239q0 -204 -197 -305q133 -19 215 -109.5t82 -226.5q0 -197 -116 -301q-67 -60 -174.5 -87.5t-270.5 -27.5h-497zM471 231h131q180 0 232 52q45 45 45 127q0 110 -54 155q-31 27 -82 37t-141 10h-131v-381z M471 844h109q68 0 107 9.5t65 33.5q41 41 41 125q0 77 -39 116q-41 41 -166 41h-117v-325z" />
<glyph unicode="C" horiz-adv-x="1206" d="M92 694q0 168 39 300t119.5 230t212 150.5t307.5 52.5q92 0 196 -17.5t171 -45.5l-41 -234q-176 50 -301 50q-88 0 -154 -23.5t-107 -64t-66 -102.5t-34.5 -130.5t-9.5 -157.5q0 -272 100 -383q46 -53 117.5 -76.5t189.5 -23.5q110 0 259 29l32 -234q-62 -19 -163.5 -31 t-188.5 -12q-349 0 -508 170q-170 181 -170 553z" />
<glyph unicode="D" horiz-adv-x="1404" d="M152 0v1401h432q206 0 340 -36.5t219 -121.5q170 -167 170 -536q0 -373 -170 -549q-155 -158 -516 -158h-475zM471 233h135q217 0 301 125q41 61 57.5 140t16.5 209q0 147 -23 229t-75 139q-46 50 -120 71t-194 21h-98v-934z" />
<glyph unicode="E" horiz-adv-x="1193" d="M152 0v1401h946l-25 -232h-602v-340h481v-239h-481v-359h637v-231h-956z" />
<glyph unicode="F" horiz-adv-x="1132" d="M152 0v1401h923l-24 -232h-580v-340h459v-239h-459v-590h-319z" />
<glyph unicode="G" horiz-adv-x="1374" d="M92 692q0 166 44 300t131 231.5t222.5 150.5t311.5 53q104 0 216 -19t179 -48l-41 -234q-179 52 -332 52q-208 0 -303.5 -119t-95.5 -354q0 -257 82 -373q80 -113 270 -113q84 0 170 14v295h-196v230h514v-715q-100 -31 -242.5 -51.5t-257.5 -20.5q-185 0 -316.5 49.5 t-208.5 145.5t-112 225t-35 301z" />
<glyph unicode="H" horiz-adv-x="1435" d="M152 0v1401h319v-572h494v572h319v-1401h-319v590h-494v-590h-319z" />
<glyph unicode="I" horiz-adv-x="630" d="M156 0v1401h319v-1401h-319z" />
<glyph unicode="J" horiz-adv-x="847" d="M41 233q84 -16 166 -16q103 0 140.5 39t37.5 154v991h320v-1000q0 -130 -23.5 -208t-77.5 -132q-93 -90 -323 -90q-82 0 -218 19z" />
<glyph unicode="K" horiz-adv-x="1335" d="M152 0v1401h319v-586l469 586h365l-496 -567l510 -834h-379l-338 596l-131 -150v-446h-319z" />
<glyph unicode="L" horiz-adv-x="1128" d="M152 0v1401h319v-1170h621v-231h-940z" />
<glyph unicode="M" horiz-adv-x="1699" d="M152 0v1401h251l443 -783l457 783h245v-1401h-293v807l-290 -488h-246l-299 496v-815h-268z" />
<glyph unicode="N" horiz-adv-x="1482" d="M152 0v1401h235l664 -897v897h280v-1401h-256l-643 850v-850h-280z" />
<glyph unicode="O" horiz-adv-x="1425" d="M92 698q0 729 621 729q316 0 468 -184t152 -545q0 -360 -152 -543.5t-468 -183.5q-317 0 -469 183.5t-152 543.5zM424 698q0 -254 67 -365.5t222 -111.5t221.5 111.5t66.5 365.5q0 255 -67 367.5t-221 112.5q-155 0 -222 -112.5t-67 -367.5z" />
<glyph unicode="P" horiz-adv-x="1267" d="M152 0v1401h481q168 0 275 -26.5t173 -88.5q113 -104 113 -328t-104 -340q-120 -135 -394 -135h-225v-483h-319zM471 723h158q75 0 115 11.5t71 41.5q55 55 55 178q0 116 -53 166q-55 49 -196 49h-150v-446z" />
<glyph unicode="Q" horiz-adv-x="1429" d="M92 698q0 729 621 729q316 0 468 -184t152 -545q0 -430 -217 -606q223 -3 350 -51q-13 -58 -49 -153t-61 -128l-416 177q-54 23 -86.5 28.5t-114.5 5.5h-26q-317 0 -469 183.5t-152 543.5zM424 698q0 -254 67 -365.5t222 -111.5t221.5 111.5t66.5 365.5q0 255 -67 367.5 t-221 112.5q-155 0 -222 -112.5t-67 -367.5z" />
<glyph unicode="R" horiz-adv-x="1327" d="M152 0v1401h481q174 0 278.5 -25t171.5 -88q117 -110 117 -321q0 -145 -60 -253t-177 -163l303 -551h-361l-258 508h-176v-508h-319zM471 739h141q148 0 205 49q60 51 60 175q0 105 -50 155q-54 51 -213 51h-143v-430z" />
<glyph unicode="S" horiz-adv-x="1208" d="M98 1018q0 104 39.5 183.5t110.5 128t165 73t208 24.5q223 0 391 -57l-49 -237q-182 49 -336 49q-228 0 -228 -150q0 -44 24.5 -76t66 -52t95 -36t113 -33t118.5 -37t112.5 -53t95 -77t66 -112.5t24.5 -156.5q0 -184 -117 -295q-74 -69 -177.5 -101t-254.5 -32 q-258 0 -465 72l50 244q90 -31 199 -50.5t188 -19.5q143 0 209.5 41.5t66.5 136.5q0 46 -30.5 79.5t-81 51t-114.5 36.5t-131.5 36t-131.5 50t-114.5 77t-81 119t-30.5 174z" />
<glyph unicode="T" horiz-adv-x="1245" d="M29 1169v232h1202l-25 -232h-424v-1169h-319v1169h-434z" />
<glyph unicode="U" horiz-adv-x="1421" d="M139 514v887h318v-887q0 -164 67 -231q65 -68 205 -68t203 66q67 67 67 231v889h283v-873q0 -288 -137 -417q-69 -66 -182 -103t-248 -37q-303 0 -441 135q-70 69 -102.5 164.5t-32.5 243.5z" />
<glyph unicode="V" horiz-adv-x="1335" d="M25 1401h342l327 -1016l305 1016h312l-465 -1401h-334z" />
<glyph unicode="W" horiz-adv-x="1972" d="M25 1401h337l261 -1012l251 1012h261l274 -1010l250 1010h289l-379 -1401h-348l-230 817l-211 -817h-346z" />
<glyph unicode="X" horiz-adv-x="1300" d="M29 0l465 698l-428 703h333l279 -463l254 463h340l-459 -686l447 -715h-355l-278 475l-252 -475h-346z" />
<glyph unicode="Y" horiz-adv-x="1355" d="M25 1401h360l307 -565l320 565h319l-504 -832v-569h-319v571z" />
<glyph unicode="Z" horiz-adv-x="1220" d="M70 0v188l680 977h-660v236h1053v-197l-670 -968h674v-236h-1077z" />
<glyph unicode="[" horiz-adv-x="761" d="M199 -424v1913h518v-205h-217v-1503h217v-205h-518z" />
<glyph unicode="\" horiz-adv-x="983" d="M53 1427h260l617 -1456h-260z" />
<glyph unicode="]" horiz-adv-x="761" d="M45 -219h217v1503h-217v205h518v-1913h-518v205z" />
<glyph unicode="^" d="M174 776l358 627h162l361 -627h-242l-199 408l-204 -408h-236z" />
<glyph unicode="_" horiz-adv-x="880" d="M0 -57h881v-199h-881v199z" />
<glyph unicode="`" horiz-adv-x="876" d="M178 1425l144 195l374 -348l-102 -127z" />
<glyph unicode="a" horiz-adv-x="1087" d="M61 301q0 141 89 227q53 50 139.5 71.5t228.5 21.5h160v32q0 79 -37 113q-46 41 -170 41q-146 0 -281 -27l-14 215q189 37 356 37q264 0 361 -114q78 -90 78 -267v-651h-232l-24 61q-141 -90 -301 -90q-168 0 -260.5 90t-92.5 240zM354 313q0 -58 33.5 -88t110.5 -30 q79 0 180 30v207h-156q-104 0 -139 -35q-29 -29 -29 -84z" />
<glyph unicode="b" horiz-adv-x="1146" d="M123 0v1464h293v-499q52 31 127.5 49t148.5 18q383 0 383 -526q0 -137 -28.5 -246.5t-83.5 -171.5q-102 -117 -285 -117q-158 0 -299 92l-14 -63h-242zM416 250q85 -49 174 -49q100 0 139 66t39 235q0 118 -19.5 183t-56.5 88.5t-102 23.5q-104 0 -174 -27v-520z" />
<glyph unicode="c" horiz-adv-x="948" d="M72 479q0 264 129 404q67 72 171.5 110.5t229.5 38.5q163 0 295 -37l-18 -217q-111 29 -232 29q-134 0 -203 -72q-67 -72 -67 -233q0 -158 69.5 -232.5t225.5 -74.5q104 0 209 20l22 -211q-141 -33 -282 -33q-338 0 -467 201q-82 125 -82 307z" />
<glyph unicode="d" horiz-adv-x="1150" d="M72 500q0 248 107.5 390t289.5 142q143 0 266 -74v506h293v-1464h-254l-6 72q-152 -101 -317 -101q-151 0 -240 86q-139 136 -139 443zM379 492q0 -165 40.5 -228t141.5 -63q85 0 174 35v542q-74 23 -139 23q-110 0 -163.5 -68t-53.5 -241z" />
<glyph unicode="e" horiz-adv-x="1081" d="M72 500q0 261 127 396.5t360 135.5q229 0 345 -124t116 -382v-92q0 -22 -25 -22h-616q6 -122 80 -169.5t229 -47.5q120 0 250 24l23 -213q-187 -35 -338 -35q-281 0 -416 129q-135 130 -135 400zM379 602h354q0 97 -45 153t-131 56q-168 0 -178 -209z" />
<glyph unicode="f" horiz-adv-x="735" d="M29 813v158l172 30v140q0 179 84 266q89 92 299 92q103 0 213 -22v-209q-82 12 -138 12q-100 0 -137 -37q-28 -28 -28 -119v-120h237v-191h-237v-813h-293v813h-172z" />
<glyph unicode="g" horiz-adv-x="1107" d="M55 -225q0 60 31.5 106.5t87.5 75.5q-51 42 -51 131q0 63 35 127.5t98 116.5q-154 100 -154 315q0 195 117.5 290t335.5 95q49 0 98 -6l99 250q134 -31 227 -102l-145 -203q172 -96 172 -324q0 -196 -116.5 -291.5t-334.5 -95.5q-76 0 -131 8q-27 -50 -27 -80 q0 -26 29 -26h197q144 0 234 -25.5t144 -81.5q74 -77 74 -213q0 -331 -510 -331h-16q-258 0 -376 64t-118 200zM315 -158q0 -58 53.5 -84t188.5 -26h31q110 0 167.5 25.5t57.5 72.5q0 50 -37.5 69t-138.5 19h-293q-29 -32 -29 -76zM367 647q0 -90 44.5 -134t143.5 -44 q98 0 142 44t44 134q0 88 -44 132t-142 44q-99 0 -143.5 -44t-44.5 -132z" />
<glyph unicode="h" horiz-adv-x="1173" d="M123 0v1464h293v-514q147 82 313 82q71 0 137 -19.5t105 -58.5q86 -83 86 -264v-690h-293v655q0 70 -31 101q-35 32 -127 32q-42 0 -98.5 -9.5t-91.5 -22.5v-756h-293z" />
<glyph unicode="i" horiz-adv-x="550" d="M115 1311v26q0 74 38.5 108t114.5 34h15q76 0 114.5 -34t38.5 -108v-26q0 -73 -38 -106.5t-115 -33.5h-15q-77 0 -115 33.5t-38 106.5zM129 0v1004h293v-1004h-293z" />
<glyph unicode="j" horiz-adv-x="550" d="M-182 -262q54 -4 94 -4q123 0 170 47q47 44 47 162v1061h293v-957q0 -138 -21.5 -233t-74 -164.5t-143 -102t-226.5 -32.5q-41 0 -111 4zM115 1311v26q0 74 38.5 108t114.5 34h15q76 0 114.5 -34t38.5 -108v-26q0 -73 -38 -106.5t-115 -33.5h-15q-77 0 -115 33.5 t-38 106.5z" />
<glyph unicode="k" horiz-adv-x="1114" d="M123 0v1464h293v-843l313 383h336l-354 -402l391 -602h-330l-252 399l-104 -131v-268h-293z" />
<glyph unicode="l" horiz-adv-x="550" d="M129 0v1464h293v-1464h-293z" />
<glyph unicode="m" horiz-adv-x="1769" d="M123 0v1004h254l6 -72q151 100 326 100q191 0 266 -106q158 106 350 106q71 0 137 -19.5t105 -58.5q86 -83 86 -264v-690h-293v655q0 70 -31 101q-35 32 -127 32q-79 0 -170 -26q4 -46 4 -72v-690h-293v655q0 71 -30 101q-35 32 -123 32q-87 0 -174 -32v-756h-293z" />
<glyph unicode="n" horiz-adv-x="1173" d="M123 0v1004h254l6 -72q154 100 346 100q71 0 137 -19.5t105 -58.5q86 -83 86 -264v-690h-293v655q0 70 -31 101q-35 32 -127 32q-42 0 -98.5 -9.5t-91.5 -22.5v-756h-293z" />
<glyph unicode="o" horiz-adv-x="1163" d="M72 502q0 249 128 389.5t382 140.5t382 -140.5t128 -389.5t-128 -390t-382 -141t-382 141t-128 390zM377 502q0 -158 48 -232.5t157 -74.5q108 0 156 74.5t48 232.5t-48 232.5t-156 74.5q-109 0 -157 -74.5t-48 -232.5z" />
<glyph unicode="p" horiz-adv-x="1146" d="M123 -461v1465h254l8 -74q154 102 315 102q151 0 240 -86q135 -132 135 -438q0 -144 -28.5 -249.5t-82 -167.5t-123 -91t-157.5 -29q-148 0 -268 74v-506h-293zM416 231q66 -28 182 -28q64 0 99.5 27t53 94t17.5 188q0 161 -39 222t-139 61q-80 0 -174 -27v-537z" />
<glyph unicode="q" horiz-adv-x="1148" d="M72 498q0 278 127 417q108 117 282 117q148 0 289 -92l14 64h242v-1446l-293 -37v518q-54 -30 -129 -49t-145 -19q-387 0 -387 527zM379 498q0 -118 21.5 -184t59.5 -89.5t103 -23.5q86 0 170 32v537q-85 29 -155 29q-110 0 -154.5 -72.5t-44.5 -228.5z" />
<glyph unicode="r" horiz-adv-x="778" d="M123 0v1004h254l10 -82q55 51 142 79.5t165 28.5q27 0 51 -4v-256q-66 8 -129 8q-92 0 -200 -24v-754h-293z" />
<glyph unicode="s" horiz-adv-x="972" d="M76 709q0 147 109.5 235t326.5 88q172 0 334 -55l-23 -215q-161 45 -309 45q-162 0 -162 -82q0 -30 23.5 -50t62 -29.5t88 -20t101 -20t101 -32.5t88 -54t62 -87t23.5 -131q0 -159 -114.5 -244.5t-337.5 -85.5q-87 0 -189 16.5t-164 39.5l23 217q59 -19 151 -33t172 -14 q90 0 135.5 20.5t45.5 71.5q0 32 -23.5 52.5t-62 29.5t-87.5 19.5t-100.5 19.5t-100.5 30.5t-87.5 52t-62 86t-23.5 130.5z" />
<glyph unicode="t" horiz-adv-x="821" d="M16 813v160l170 31v223q140 43 293 43v-266h260v-191h-260v-469q0 -88 28 -121t114 -33q27 0 141 13l10 -207q-118 -25 -256 -25q-182 0 -256 80t-74 252v510h-170z" />
<glyph unicode="u" horiz-adv-x="1165" d="M117 313v691h293v-650q0 -76 30 -106q36 -33 127 -33q94 0 183 29v760h292v-1004h-254l-8 68q-155 -97 -336 -97q-71 0 -136.5 19.5t-104.5 58.5q-86 83 -86 264z" />
<glyph unicode="v" horiz-adv-x="1085" d="M20 1004h316l223 -697l213 697h293l-346 -1004h-340z" />
<glyph unicode="w" horiz-adv-x="1619" d="M20 1004h310l178 -715l178 715h264l193 -715l168 715h288l-288 -1004h-340l-160 532l-158 -532h-338z" />
<glyph unicode="x" horiz-adv-x="1089" d="M20 1004h334l217 -304l164 304h320l-346 -496l360 -508h-342l-209 301l-166 -301h-325l356 494z" />
<glyph unicode="y" horiz-adv-x="1169" d="M117 313v691h293v-650q0 -70 30 -100q36 -33 125 -33q40 0 96 11.5t93 25.5v746h293v-961q0 -138 -21.5 -233t-74 -164.5t-143 -102t-226.5 -32.5q-132 0 -256 26l-21 217q125 -22 230 -22q123 0 170 47q49 46 49 162v122q-144 -81 -316 -81q-156 0 -233 77 q-88 88 -88 254z" />
<glyph unicode="z" horiz-adv-x="905" d="M37 0v166l467 651h-455v187h799v-170l-465 -648h489v-186h-835z" />
<glyph unicode="{" horiz-adv-x="804" d="M53 428v213q129 13 183.5 58.5t54.5 158.5v287q0 184 74.5 264t246.5 80h123v-205h-22q-72 0 -96.5 -22t-24.5 -93v-313q0 -129 -51 -204.5t-168 -116.5q117 -41 168 -117t51 -205v-317q0 -71 24.5 -93t96.5 -22h22v-205h-123q-172 0 -246.5 80t-74.5 264v291 q0 113 -54.5 158.5t-183.5 58.5z" />
<glyph unicode="|" horiz-adv-x="516" d="M131 -518v2040h254v-2040h-254z" />
<glyph unicode="}" horiz-adv-x="804" d="M70 -219h22q72 0 96.5 22t24.5 93v317q0 129 51 205t168 117q-117 41 -168 116.5t-51 204.5v313q0 71 -24.5 93t-96.5 22h-22v205h123q172 0 246.5 -80t74.5 -264v-287q0 -113 54.5 -158.5t183.5 -58.5v-213q-129 -13 -183.5 -58.5t-54.5 -158.5v-291q0 -184 -74.5 -264 t-246.5 -80h-123v205z" />
<glyph unicode="~" d="M164 614q0 153 66 223t192 70q59 0 130 -25t134.5 -50t104.5 -25q77 0 102 113l172 -23q0 -156 -66 -226.5t-192 -70.5q-60 0 -130.5 25.5t-134 51t-104.5 25.5q-78 0 -102 -114z" />
<glyph unicode="&#xa1;" horiz-adv-x="593" d="M139 866v25q0 75 37 108t113 33h14q76 0 113 -33t37 -108v-25q0 -75 -37 -108t-113 -33h-14q-76 0 -113 33t-37 108zM147 -397l46 962h217l45 -962h-308z" />
<glyph unicode="&#xa2;" d="M178 479q0 264 129 404q107 113 293 141v242h186v-236q114 -6 218 -33v-223q-143 33 -250 33q-134 0 -203 -72q-68 -74 -68 -233q0 -158 69.5 -233.5t225.5 -75.5q111 0 232 22v-211q-127 -29 -224 -31v-235h-186v242q-239 32 -340 192q-82 125 -82 307z" />
<glyph unicode="&#xa3;" d="M113 655v170l170 11q-13 89 -13 178q0 182 99 289q118 124 407 124q167 0 320 -36v-222q-167 29 -277 29q-146 0 -203 -51q-49 -43 -49 -146q0 -62 11 -163h321v-183h-295q8 -90 8 -127q0 -181 -137 -315h668v-213h-946q-11 50 -11 117q0 46 14 88t34 75t40 66.5t34 77.5 t14 94q0 35 -13 137h-196z" />
<glyph unicode="&#xa4;" d="M104 348l144 141q-49 88 -49 209t49 209l-144 142l148 149l151 -154q87 43 211 43t211 -43l152 154l147 -149l-143 -142q49 -88 49 -209t-49 -209l143 -141l-147 -149l-152 153q-87 -43 -211 -43t-211 43l-151 -153zM463 698q0 -90 39.5 -136t111.5 -46t112 46t40 136 t-40 136.5t-112 46.5t-111.5 -46t-39.5 -137z" />
<glyph unicode="&#xa5;" d="M12 1401h344l267 -565l278 565h316l-388 -707h189v-168h-258v-77h258v-168h-258v-281h-305v281h-258v168h258v77h-258v168h192z" />
<glyph unicode="&#xa6;" horiz-adv-x="516" d="M131 272h254v-790h-254v790zM131 731v791h254v-791h-254z" />
<glyph unicode="&#xa7;" horiz-adv-x="1226" d="M176 700q0 117 68 195q-68 77 -68 203q0 136 90 223q112 106 365 106q175 0 317 -49l-41 -198q-154 41 -276 41q-103 0 -144 -23.5t-41 -71.5q0 -43 28 -66t108 -36l174 -29q154 -25 224.5 -94.5t70.5 -204.5q0 -113 -70 -196q70 -80 70 -201q0 -157 -113.5 -242.5 t-333.5 -85.5q-212 0 -383 60l41 205q73 -27 163.5 -42.5t156.5 -15.5q109 0 153.5 20.5t44.5 71.5q0 42 -29.5 64t-95.5 31l-178 30q-165 27 -233 101t-68 204zM442 729q0 -43 29.5 -65t110.5 -35l170 -29q32 19 32 68q0 40 -31 61.5t-98 32.5l-186 31q-27 -24 -27 -64z " />
<glyph unicode="&#xa8;" horiz-adv-x="876" d="M80 1339v23q0 69 33.5 100t103.5 31h12q70 0 105 -31t35 -100v-23q0 -131 -140 -131h-12q-70 0 -103.5 31.5t-33.5 99.5zM506 1339v23q0 131 139 131h12q70 0 104 -31t34 -100v-23q0 -68 -34 -99.5t-104 -31.5h-12q-139 0 -139 131z" />
<glyph unicode="&#xa9;" horiz-adv-x="1617" d="M88 700q0 173 54.5 311.5t151 229t228 138.5t287.5 48t287.5 -48t228 -138.5t151 -229t54.5 -311.5t-54.5 -312t-151 -229.5t-228 -139t-287.5 -48.5t-287.5 48.5t-228 139t-151 229.5t-54.5 312zM297 700q0 -263 131.5 -404.5t380.5 -141.5t380.5 141.5t131.5 404.5 q0 262 -131.5 403.5t-380.5 141.5t-380.5 -141.5t-131.5 -403.5zM506 705q0 170 83 266t261 96q100 0 172 -35l-21 -123q-87 23 -147 23q-91 0 -129.5 -49.5t-38.5 -177.5q0 -135 47 -185q23 -23 52.5 -32t82.5 -9q63 0 131 10l15 -127q-74 -18 -164 -18q-180 0 -260 86 q-84 90 -84 275z" />
<glyph unicode="&#xaa;" horiz-adv-x="847" d="M102 926q0 119 75 172t235 53h104v23q0 54 -26.5 72t-110.5 18q-106 0 -195 -19l-10 160q125 25 252 25q171 0 238 -64q61 -58 61 -184v-467h-166l-18 41q-88 -60 -197 -60q-107 0 -174.5 61t-67.5 169zM307 936q0 -74 94 -74q53 0 115 15v129h-108q-57 0 -79 -15.5 t-22 -54.5z" />
<glyph unicode="&#xab;" horiz-adv-x="1165" d="M92 535q0 36 17 66t57 71l303 329l119 -114l-238 -352l238 -353l-119 -114l-303 329q-40 41 -57 71.5t-17 66.5zM559 535q0 36 17 66t57 71l303 329l119 -114l-238 -352l238 -353l-119 -114l-303 329q-40 41 -57 71.5t-17 66.5z" />
<glyph unicode="&#xac;" d="M233 764v192h766v-585h-192v393h-574z" />
<glyph unicode="&#xad;" horiz-adv-x="684" d="M94 410v243h496v-243h-496z" />
<glyph unicode="&#xae;" horiz-adv-x="1617" d="M88 700q0 173 54.5 311.5t151 229t228 138.5t287.5 48t287.5 -48t228 -138.5t151 -229t54.5 -311.5t-54.5 -312t-151 -229.5t-228 -139t-287.5 -48.5t-287.5 48.5t-228 139t-151 229.5t-54.5 312zM297 700q0 -263 131.5 -404.5t380.5 -141.5t380.5 141.5t131.5 404.5 q0 262 -131.5 403.5t-380.5 141.5t-380.5 -141.5t-131.5 -403.5zM575 360v699h236q147 0 215 -48.5t68 -170.5q0 -152 -115 -201l149 -279h-190l-127 248h-66v-248h-170zM745 729h70q57 0 82 25.5t25 79.5q0 61 -25 81.5t-88 20.5h-64v-207z" />
<glyph unicode="&#xaf;" horiz-adv-x="876" d="M135 1239v201h604v-201h-604z" />
<glyph unicode="&#xb0;" horiz-adv-x="1095" d="M150 1038q0 176 103.5 282.5t295.5 106.5t295.5 -106.5t103.5 -282.5t-103.5 -282.5t-295.5 -106.5t-295.5 106.5t-103.5 282.5zM389 1038q0 -91 41 -141.5t119 -50.5t119 50.5t41 141.5t-41 142t-119 51t-119 -51t-41 -142z" />
<glyph unicode="&#xb1;" d="M231 0v193h766v-193h-766zM231 676v192h287v287h193v-287h286v-192h-286v-287h-193v287h-287z" />
<glyph unicode="&#xb2;" horiz-adv-x="1024" d="M201 780q0 43 16.5 76t61.5 84l137 150q69 74 98 116t29 78q0 74 -127 74q-74 0 -168 -15v175q102 20 229 20q141 0 219 -57.5t78 -163.5q0 -77 -43 -146t-162 -188l-114 -115h344v-163h-590q-8 36 -8 75z" />
<glyph unicode="&#xb3;" horiz-adv-x="1024" d="M246 723v164q70 -13 157 -13q90 0 127 22t37 75q0 50 -33 68t-112 18h-51v149h57q123 0 123 80q0 42 -32.5 61t-106.5 19q-91 0 -156 -10v162q78 20 205 20q150 0 233.5 -54.5t83.5 -162.5q0 -134 -110 -184q135 -39 135 -187q0 -120 -93.5 -184t-265.5 -64 q-98 0 -198 21z" />
<glyph unicode="&#xb4;" horiz-adv-x="876" d="M178 1272l375 348l143 -195l-415 -280z" />
<glyph unicode="&#xb5;" horiz-adv-x="1171" d="M123 -461v1465h293v-648q0 -76 30 -106q36 -33 127 -33q94 0 183 29v758h293v-1004h-254l-9 68q-152 -95 -335 -95q-23 0 -43 2v-436h-285z" />
<glyph unicode="&#xb6;" horiz-adv-x="1337" d="M96 1030q0 177 105.5 274t277.5 97h756v-203h-139v-1614h-232v1614h-155v-1614h-230v1075q-176 0 -279.5 97t-103.5 274z" />
<glyph unicode="&#xb7;" horiz-adv-x="489" d="M88 686v25q0 75 37 108t113 33h14q75 0 112 -33t37 -108v-25q0 -75 -37 -108t-112 -33h-14q-76 0 -113 33t-37 108z" />
<glyph unicode="&#xb8;" horiz-adv-x="876" d="M225 -334q78 -20 142 -20q90 0 90 47q0 21 -21.5 37t-93.5 39q-61 20 -87 46.5t-26 75.5q0 27 12.5 61.5t30.5 57.5h146q-10 -35 -10 -53t13 -28.5t62 -28.5q97 -36 132.5 -76t35.5 -111q0 -98 -55 -159q-29 -33 -80 -51.5t-108 -18.5q-101 0 -183 29v153z" />
<glyph unicode="&#xb9;" horiz-adv-x="1024" d="M279 713v164h147v489h-139v162q122 12 233 12q73 0 100 -22t27 -78v-563h115v-164h-483z" />
<glyph unicode="&#xba;" horiz-adv-x="860" d="M78 1063q0 173 87 270t265 97t265 -97t87 -270t-87 -270t-265 -97t-265 97t-87 270zM299 1063q0 -104 33 -150.5t98 -46.5t98 46.5t33 150.5t-33 150.5t-98 46.5t-98 -46.5t-33 -150.5z" />
<glyph unicode="&#xbb;" horiz-adv-x="1165" d="M111 182l237 353l-237 352l118 114l303 -329q40 -41 57 -71t17 -66t-17 -66.5t-57 -71.5l-303 -329zM578 182l237 353l-237 352l118 114l303 -329q40 -41 57 -71t17 -66t-17 -66.5t-57 -71.5l-303 -329z" />
<glyph unicode="&#xbc;" horiz-adv-x="2045" d="M188 584v164h148v489h-139v162q122 12 233 12q73 0 100 -22t27 -78v-563h111v-164h-480zM502 -29l747 1456h252l-747 -1456h-252zM1214 233q0 50 29 136l152 452h231l-162 -473h148v180h203v-180h71v-172h-71v-176h-203v176h-389q-9 31 -9 57z" />
<glyph unicode="&#xbd;" horiz-adv-x="2045" d="M188 584v164h148v489h-139v162q122 12 233 12q73 0 100 -22t27 -78v-563h111v-164h-480zM502 -29l747 1456h252l-747 -1456h-252zM1280 76q0 43 16.5 76t61.5 84l137 149q69 74 98 116.5t29 78.5q0 39 -31 56t-96 17q-80 0 -168 -14v174q107 21 229 21q140 0 218.5 -57.5 t78.5 -164.5q0 -77 -42.5 -145.5t-161.5 -187.5l-115 -115h344v-164h-590q-8 36 -8 76z" />
<glyph unicode="&#xbe;" horiz-adv-x="2045" d="M221 612v164q64 -12 158 -12q90 0 127 21.5t37 74.5q0 49 -33.5 67.5t-112.5 18.5h-51v150h57q123 0 123 80q0 42 -32.5 60.5t-106.5 18.5q-91 0 -156 -10v162q78 20 205 20q150 0 234 -54.5t84 -162.5q0 -134 -111 -184q135 -39 135 -186q0 -120 -93 -184t-265 -64 q-104 0 -199 20zM541 -29l747 1456h252l-747 -1456h-252zM1231 233q0 50 29 136l151 452h231l-161 -473h147v180h203v-180h72v-172h-72v-176h-203v176h-389q-8 28 -8 57z" />
<glyph unicode="&#xbf;" horiz-adv-x="888" d="M51 -59q0 63 16 117.5t42 95.5t58.5 79t67 74t64.5 73t54 84t34 99h203q6 -35 6 -63q0 -21 -3.5 -41.5t-13.5 -44.5t-16.5 -39.5t-24 -43.5t-23.5 -37.5t-27.5 -41t-24.5 -35.5q-33 -46 -51 -76t-34 -75t-16 -89q0 -77 41 -118q48 -45 160 -45q94 0 213 36l39 -212 q-69 -27 -159.5 -44.5t-166.5 -17.5q-217 0 -327.5 94.5t-110.5 270.5zM330 866v25q0 75 37 108t112 33h15q75 0 112 -33t37 -108v-25q0 -75 -37 -108t-112 -33h-15q-75 0 -112 33t-37 108z" />
<glyph unicode="&#xc0;" horiz-adv-x="1347" d="M10 0l469 1401h352l506 -1401h-342l-116 352h-455l-109 -352h-305zM414 1835l143 195l375 -349l-103 -127zM498 584h303l-154 467h-4z" />
<glyph unicode="&#xc1;" horiz-adv-x="1347" d="M10 0l469 1401h352l506 -1401h-342l-116 352h-455l-109 -352h-305zM414 1681l374 349l144 -195l-416 -281zM498 584h303l-154 467h-4z" />
<glyph unicode="&#xc2;" horiz-adv-x="1347" d="M10 0l469 1401h352l506 -1401h-342l-116 352h-455l-109 -352h-305zM319 1665l256 295h197l256 -295l-102 -104l-252 200l-252 -200zM498 584h303l-154 467h-4z" />
<glyph unicode="&#xc3;" horiz-adv-x="1347" d="M10 0l469 1401h352l506 -1401h-342l-116 352h-455l-109 -352h-305zM299 1645q0 133 57.5 206.5t159.5 73.5q51 0 108.5 -21.5t108 -43t84.5 -21.5q68 0 86 94l146 -22q0 -133 -58 -207t-160 -74q-65 0 -163.5 43t-137.5 43q-68 0 -86 -94zM498 584h303l-154 467h-4z" />
<glyph unicode="&#xc4;" horiz-adv-x="1347" d="M10 0l469 1401h352l506 -1401h-342l-116 352h-455l-109 -352h-305zM315 1749v23q0 69 34 100t104 31h12q69 0 104 -31t35 -100v-23q0 -131 -139 -131h-12q-70 0 -104 31.5t-34 99.5zM498 584h303l-154 467h-4zM741 1749v23q0 131 140 131h12q70 0 103.5 -31t33.5 -100 v-23q0 -68 -33.5 -99.5t-103.5 -31.5h-12q-140 0 -140 131z" />
<glyph unicode="&#xc5;" horiz-adv-x="1347" d="M10 0l469 1401h352l506 -1401h-342l-116 352h-455l-109 -352h-305zM393 1802v29q0 119 62.5 173t185.5 54h14q122 0 184 -54t62 -173v-29q0 -227 -246 -227h-14q-123 0 -185.5 54.5t-62.5 172.5zM498 584h303l-154 467h-4zM537 1810q0 -57 25.5 -81.5t82.5 -24.5h6 q55 0 80 24.5t25 81.5v9q0 59 -24.5 81.5t-80.5 22.5h-6q-58 0 -83 -22.5t-25 -81.5v-9z" />
<glyph unicode="&#xc6;" horiz-adv-x="2054" d="M4 0l864 1401h1090l-25 -230h-602v-340h481v-243h-481v-359h637v-229h-956v383h-455l-225 -383h-328zM696 610h316v539z" />
<glyph unicode="&#xc7;" horiz-adv-x="1206" d="M92 694q0 168 39 300t119.5 230t212 150.5t307.5 52.5q92 0 196 -17.5t171 -45.5l-41 -234q-176 50 -301 50q-88 0 -154 -23.5t-107 -64t-66 -102.5t-34.5 -130.5t-9.5 -157.5q0 -272 100 -383q46 -53 117.5 -76.5t189.5 -23.5q110 0 259 29l32 -234q-129 -39 -346 -43 v-14q0 -18 13.5 -28.5t62.5 -28.5q97 -36 132.5 -76t35.5 -111q0 -98 -55 -159q-29 -33 -80.5 -51.5t-108.5 -18.5q-100 0 -182 29v153q78 -20 141 -20q90 0 90 47q0 21 -21 37t-93 39q-61 20 -87 46.5t-26 75.5q0 41 23 89q-236 29 -359 161q-170 181 -170 553z" />
<glyph unicode="&#xc8;" horiz-adv-x="1193" d="M152 0v1401h946l-25 -232h-602v-340h481v-239h-481v-359h637v-231h-956zM338 1835l143 195l375 -349l-102 -127z" />
<glyph unicode="&#xc9;" horiz-adv-x="1193" d="M152 0v1401h946l-25 -232h-602v-340h481v-239h-481v-359h637v-231h-956zM358 1681l375 349l144 -195l-416 -281z" />
<glyph unicode="&#xca;" horiz-adv-x="1193" d="M152 0v1401h946l-25 -232h-602v-340h481v-239h-481v-359h637v-231h-956zM262 1665l256 295h197l256 -295l-103 -104l-252 200l-251 -200z" />
<glyph unicode="&#xcb;" horiz-adv-x="1193" d="M152 0v1401h946l-25 -232h-602v-340h481v-239h-481v-359h637v-231h-956zM260 1749v23q0 69 33.5 100t103.5 31h13q69 0 104 -31t35 -100v-23q0 -131 -139 -131h-13q-70 0 -103.5 31.5t-33.5 99.5zM686 1749v23q0 131 139 131h13q70 0 103.5 -31t33.5 -100v-23 q0 -68 -33.5 -99.5t-103.5 -31.5h-13q-139 0 -139 131z" />
<glyph unicode="&#xcc;" horiz-adv-x="630" d="M57 1835l144 195l374 -349l-102 -127zM156 0v1401h319v-1401h-319z" />
<glyph unicode="&#xcd;" horiz-adv-x="630" d="M57 1681l375 349l143 -195l-415 -281zM156 0v1401h319v-1401h-319z" />
<glyph unicode="&#xce;" horiz-adv-x="630" d="M-39 1665l256 295h197l256 -295l-103 -104l-252 200l-252 -200zM156 0v1401h319v-1401h-319z" />
<glyph unicode="&#xcf;" horiz-adv-x="630" d="M-41 1749v23q0 69 33.5 100t103.5 31h13q69 0 104 -31t35 -100v-23q0 -131 -139 -131h-13q-70 0 -103.5 31.5t-33.5 99.5zM156 0v1401h319v-1401h-319zM385 1749v23q0 131 139 131h13q70 0 103.5 -31t33.5 -100v-23q0 -68 -33.5 -99.5t-103.5 -31.5h-13q-139 0 -139 131z " />
<glyph unicode="&#xd0;" horiz-adv-x="1404" d="M4 590v209l148 24v578h432q206 0 340 -36.5t219 -121.5q170 -167 170 -536q0 -373 -170 -549q-155 -158 -516 -158h-475v590h-148zM471 233h135q217 0 301 125q41 61 57.5 140t16.5 209q0 147 -23 229t-75 139q-46 50 -120 71t-194 21h-98v-338h285v-239h-285v-357z" />
<glyph unicode="&#xd1;" horiz-adv-x="1482" d="M152 0v1401h235l664 -897v897h280v-1401h-256l-643 850v-850h-280zM367 1645q0 133 57.5 206.5t159.5 73.5q51 0 108.5 -21.5t108 -43t84.5 -21.5q68 0 86 94l145 -22q0 -133 -57.5 -207t-159.5 -74q-65 0 -163.5 43t-137.5 43q-68 0 -86 -94z" />
<glyph unicode="&#xd2;" horiz-adv-x="1425" d="M92 698q0 729 621 729q316 0 468 -184t152 -545q0 -360 -152 -543.5t-468 -183.5q-317 0 -469 183.5t-152 543.5zM424 698q0 -254 67 -365.5t222 -111.5t221.5 111.5t66.5 365.5q0 255 -67 367.5t-221 112.5q-155 0 -222 -112.5t-67 -367.5zM453 1835l143 195l375 -349 l-103 -127z" />
<glyph unicode="&#xd3;" horiz-adv-x="1425" d="M92 698q0 729 621 729q316 0 468 -184t152 -545q0 -360 -152 -543.5t-468 -183.5q-317 0 -469 183.5t-152 543.5zM424 698q0 -254 67 -365.5t222 -111.5t221.5 111.5t66.5 365.5q0 255 -67 367.5t-221 112.5q-155 0 -222 -112.5t-67 -367.5zM453 1681l374 349l144 -195 l-416 -281z" />
<glyph unicode="&#xd4;" horiz-adv-x="1425" d="M92 698q0 729 621 729q316 0 468 -184t152 -545q0 -360 -152 -543.5t-468 -183.5q-317 0 -469 183.5t-152 543.5zM358 1665l256 295h197l256 -295l-102 -104l-252 200l-252 -200zM424 698q0 -254 67 -365.5t222 -111.5t221.5 111.5t66.5 365.5q0 255 -67 367.5 t-221 112.5q-155 0 -222 -112.5t-67 -367.5z" />
<glyph unicode="&#xd5;" horiz-adv-x="1425" d="M92 698q0 729 621 729q316 0 468 -184t152 -545q0 -360 -152 -543.5t-468 -183.5q-317 0 -469 183.5t-152 543.5zM338 1645q0 133 57.5 206.5t159.5 73.5q51 0 108.5 -21.5t108 -43t84.5 -21.5q68 0 86 94l145 -22q0 -133 -57.5 -207t-159.5 -74q-65 0 -163.5 43 t-137.5 43q-68 0 -86 -94zM424 698q0 -254 67 -365.5t222 -111.5t221.5 111.5t66.5 365.5q0 255 -67 367.5t-221 112.5q-155 0 -222 -112.5t-67 -367.5z" />
<glyph unicode="&#xd6;" horiz-adv-x="1425" d="M92 698q0 729 621 729q316 0 468 -184t152 -545q0 -360 -152 -543.5t-468 -183.5q-317 0 -469 183.5t-152 543.5zM354 1749v23q0 69 34 100t104 31h12q69 0 104 -31t35 -100v-23q0 -131 -139 -131h-12q-70 0 -104 31.5t-34 99.5zM424 698q0 -254 67 -365.5t222 -111.5 t221.5 111.5t66.5 365.5q0 255 -67 367.5t-221 112.5q-155 0 -222 -112.5t-67 -367.5zM780 1749v23q0 131 140 131h12q70 0 103.5 -31t33.5 -100v-23q0 -68 -33.5 -99.5t-103.5 -31.5h-12q-140 0 -140 131z" />
<glyph unicode="&#xd7;" d="M274 459l205 205l-205 204l136 136l204 -205l205 205l135 -136l-204 -204l204 -205l-135 -135l-205 204l-204 -204z" />
<glyph unicode="&#xd8;" horiz-adv-x="1429" d="M92 698q0 729 623 729q86 0 168 -16l51 139h178l-70 -192q295 -156 295 -660q0 -360 -152.5 -543.5t-469.5 -183.5q-83 0 -170 17l-49 -140h-179l70 193q-295 153 -295 657zM424 698q0 -256 68 -366l303 837q-38 9 -80 9q-155 0 -223 -113t-68 -367zM633 229q33 -8 82 -8 q155 0 223 111.5t68 365.5q0 258 -70 369z" />
<glyph unicode="&#xd9;" horiz-adv-x="1421" d="M139 514v887h318v-887q0 -164 67 -231q65 -68 205 -68t203 66q67 67 67 231v889h283v-873q0 -288 -137 -417q-69 -66 -182 -103t-248 -37q-303 0 -441 135q-70 69 -102.5 164.5t-32.5 243.5zM451 1835l143 195l375 -349l-103 -127z" />
<glyph unicode="&#xda;" horiz-adv-x="1421" d="M139 514v887h318v-887q0 -164 67 -231q65 -68 205 -68t203 66q67 67 67 231v889h283v-873q0 -288 -137 -417q-69 -66 -182 -103t-248 -37q-303 0 -441 135q-70 69 -102.5 164.5t-32.5 243.5zM451 1681l374 349l144 -195l-416 -281z" />
<glyph unicode="&#xdb;" horiz-adv-x="1421" d="M139 514v887h318v-887q0 -164 67 -231q65 -68 205 -68t203 66q67 67 67 231v889h283v-873q0 -288 -137 -417q-69 -66 -182 -103t-248 -37q-303 0 -441 135q-70 69 -102.5 164.5t-32.5 243.5zM356 1665l256 295h197l256 -295l-102 -104l-252 200l-252 -200z" />
<glyph unicode="&#xdc;" horiz-adv-x="1421" d="M139 514v887h318v-887q0 -164 67 -231q65 -68 205 -68t203 66q67 67 67 231v889h283v-873q0 -288 -137 -417q-69 -66 -182 -103t-248 -37q-303 0 -441 135q-70 69 -102.5 164.5t-32.5 243.5zM373 1749v23q0 69 33.5 100t103.5 31h12q70 0 105 -31t35 -100v-23 q0 -131 -140 -131h-12q-70 0 -103.5 31.5t-33.5 99.5zM799 1749v23q0 131 139 131h12q70 0 103.5 -31t33.5 -100v-23q0 -68 -33.5 -99.5t-103.5 -31.5h-12q-139 0 -139 131z" />
<glyph unicode="&#xdd;" horiz-adv-x="1355" d="M25 1401h360l307 -565l320 565h319l-504 -832v-569h-319v571zM438 1681l375 349l143 -195l-415 -281z" />
<glyph unicode="&#xde;" horiz-adv-x="1267" d="M152 0v1401h319v-232h162q168 0 275 -26t173 -88q113 -104 113 -328t-104 -340q-120 -135 -394 -135h-225v-252h-319zM471 492h158q75 0 115 11.5t71 41.5q55 55 55 178q0 116 -53 166q-55 49 -196 49h-150v-446z" />
<glyph unicode="&#xdf;" horiz-adv-x="1460" d="M29 813v158l172 30v43q0 206 133.5 330.5t382.5 124.5q221 0 348 -89.5t127 -254.5q0 -72 -26.5 -132t-64.5 -99t-76 -72t-64.5 -65t-26.5 -62q0 -28 20 -47.5t52.5 -30t74.5 -23t85.5 -24t85.5 -35.5t74.5 -55.5t52.5 -85t20 -123.5q0 -330 -438 -330q-86 0 -185 16.5 t-162 39.5l23 217q59 -20 148.5 -33.5t168.5 -13.5q95 0 132.5 17t37.5 54q0 32 -26 53.5t-68 34.5t-93 25t-101.5 31t-92.5 47t-68 78.5t-26 119.5q0 47 15 90.5t38.5 77t52.5 65t57.5 60.5t52 57t38.5 61t15 67q0 70 -49.5 108.5t-139.5 38.5q-119 0 -177 -70.5 t-58 -201.5v-1010h-293v813h-172z" />
<glyph unicode="&#xe0;" horiz-adv-x="1087" d="M61 301q0 141 89 227q53 50 139.5 71.5t228.5 21.5h160v32q0 79 -37 113q-46 41 -170 41q-146 0 -281 -27l-14 215q189 37 356 37q264 0 361 -114q78 -90 78 -267v-651h-232l-24 61q-141 -90 -301 -90q-168 0 -260.5 90t-92.5 240zM285 1425l143 195l375 -348l-103 -127z M354 313q0 -58 33.5 -88t110.5 -30q79 0 180 30v207h-156q-104 0 -139 -35q-29 -29 -29 -84z" />
<glyph unicode="&#xe1;" horiz-adv-x="1087" d="M61 301q0 141 89 227q53 50 139.5 71.5t228.5 21.5h160v32q0 79 -37 113q-46 41 -170 41q-146 0 -281 -27l-14 215q189 37 356 37q264 0 361 -114q78 -90 78 -267v-651h-232l-24 61q-141 -90 -301 -90q-168 0 -260.5 90t-92.5 240zM285 1272l374 348l144 -195l-416 -280z M354 313q0 -58 33.5 -88t110.5 -30q79 0 180 30v207h-156q-104 0 -139 -35q-29 -29 -29 -84z" />
<glyph unicode="&#xe2;" horiz-adv-x="1087" d="M61 301q0 141 89 227q53 50 139.5 71.5t228.5 21.5h160v32q0 79 -37 113q-46 41 -170 41q-146 0 -281 -27l-14 215q189 37 356 37q264 0 361 -114q78 -90 78 -267v-651h-232l-24 61q-141 -90 -301 -90q-168 0 -260.5 90t-92.5 240zM188 1255l256 295h197l256 -295 l-102 -104l-252 201l-252 -201zM354 313q0 -58 33.5 -88t110.5 -30q79 0 180 30v207h-156q-104 0 -139 -35q-29 -29 -29 -84z" />
<glyph unicode="&#xe3;" horiz-adv-x="1087" d="M61 301q0 141 89 227q53 50 139.5 71.5t228.5 21.5h160v32q0 79 -37 113q-46 41 -170 41q-146 0 -281 -27l-14 215q189 37 356 37q264 0 361 -114q78 -90 78 -267v-651h-232l-24 61q-141 -90 -301 -90q-168 0 -260.5 90t-92.5 240zM168 1235q0 133 57.5 207t159.5 74 q51 0 108.5 -21.5t108 -43t84.5 -21.5q68 0 86 94l146 -23q0 -133 -58 -206.5t-160 -73.5q-65 0 -163.5 43t-137.5 43q-68 0 -86 -95zM354 313q0 -58 33.5 -88t110.5 -30q79 0 180 30v207h-156q-104 0 -139 -35q-29 -29 -29 -84z" />
<glyph unicode="&#xe4;" horiz-adv-x="1087" d="M61 301q0 141 89 227q53 50 139.5 71.5t228.5 21.5h160v32q0 79 -37 113q-46 41 -170 41q-146 0 -281 -27l-14 215q189 37 356 37q264 0 361 -114q78 -90 78 -267v-651h-232l-24 61q-141 -90 -301 -90q-168 0 -260.5 90t-92.5 240zM186 1339v23q0 69 34 100t104 31h12 q69 0 104 -31t35 -100v-23q0 -131 -139 -131h-12q-70 0 -104 31.5t-34 99.5zM354 313q0 -58 33.5 -88t110.5 -30q79 0 180 30v207h-156q-104 0 -139 -35q-29 -29 -29 -84zM612 1339v23q0 131 140 131h12q70 0 103.5 -31t33.5 -100v-23q0 -68 -33.5 -99.5t-103.5 -31.5h-12 q-140 0 -140 131z" />
<glyph unicode="&#xe5;" horiz-adv-x="1087" d="M61 301q0 141 89 227q53 50 139.5 71.5t228.5 21.5h160v32q0 79 -37 113q-46 41 -170 41q-146 0 -281 -27l-14 215q189 37 356 37q264 0 361 -114q78 -90 78 -267v-651h-232l-24 61q-141 -90 -301 -90q-168 0 -260.5 90t-92.5 240zM289 1393v28q0 119 62.5 173.5 t185.5 54.5h14q122 0 184 -54.5t62 -173.5v-28q0 -228 -246 -228h-14q-248 0 -248 228zM354 313q0 -58 33.5 -88t110.5 -30q79 0 180 30v207h-156q-104 0 -139 -35q-29 -29 -29 -84zM432 1401q0 -57 26 -82t83 -25h6q55 0 79.5 24.5t24.5 82.5v8q0 60 -24 82t-80 22h-6 q-58 0 -83.5 -22.5t-25.5 -81.5v-8z" />
<glyph unicode="&#xe6;" horiz-adv-x="1673" d="M61 301q0 141 89 227q53 50 139.5 71.5t228.5 21.5h160v36q-3 75 -37 109q-46 41 -170 41q-146 0 -281 -27l-14 215q189 37 356 37q213 0 324 -80q118 80 295 80q229 0 345 -124t116 -382v-92q0 -22 -25 -22h-616q6 -122 80 -169.5t229 -47.5q120 0 250 24l22 -213 q-187 -35 -338 -35q-275 0 -411 123q-68 -51 -180.5 -87t-208.5 -36q-168 0 -260.5 90t-92.5 240zM354 313q0 -58 33.5 -88t110.5 -30q99 0 211 38q-25 70 -31 199h-156q-104 0 -139 -35q-29 -29 -29 -84zM971 602h354q0 97 -45 153t-131 56q-168 0 -178 -209z" />
<glyph unicode="&#xe7;" horiz-adv-x="948" d="M72 479q0 264 129 404q67 72 171.5 110.5t229.5 38.5q163 0 295 -37l-18 -217q-111 29 -232 29q-134 0 -203 -72q-67 -72 -67 -233q0 -158 69.5 -232.5t225.5 -74.5q104 0 209 20l22 -211q-141 -33 -282 -33h-35v-14q0 -18 13.5 -28.5t62.5 -28.5q97 -36 132 -76t35 -111 q0 -98 -55 -159q-29 -33 -80 -51.5t-108 -18.5q-101 0 -183 29v153q78 -20 142 -20q90 0 90 47q0 21 -21.5 37t-93.5 39q-61 19 -86.5 46t-25.5 76q0 51 28 99q-188 38 -282 182q-82 125 -82 307z" />
<glyph unicode="&#xe8;" horiz-adv-x="1081" d="M72 500q0 261 127 396.5t360 135.5q229 0 345 -124t116 -382v-92q0 -22 -25 -22h-616q6 -122 80 -169.5t229 -47.5q120 0 250 24l23 -213q-187 -35 -338 -35q-281 0 -416 129q-135 130 -135 400zM281 1425l143 195l375 -348l-103 -127zM379 602h354q0 97 -45 153t-131 56 q-168 0 -178 -209z" />
<glyph unicode="&#xe9;" horiz-adv-x="1081" d="M72 500q0 261 127 396.5t360 135.5q229 0 345 -124t116 -382v-92q0 -22 -25 -22h-616q6 -122 80 -169.5t229 -47.5q120 0 250 24l23 -213q-187 -35 -338 -35q-281 0 -416 129q-135 130 -135 400zM281 1272l374 348l144 -195l-416 -280zM379 602h354q0 97 -45 153t-131 56 q-168 0 -178 -209z" />
<glyph unicode="&#xea;" horiz-adv-x="1081" d="M72 500q0 261 127 396.5t360 135.5q229 0 345 -124t116 -382v-92q0 -22 -25 -22h-616q6 -122 80 -169.5t229 -47.5q120 0 250 24l23 -213q-187 -35 -338 -35q-281 0 -416 129q-135 130 -135 400zM186 1255l256 295h197l256 -295l-102 -104l-252 201l-252 -201zM379 602 h354q0 97 -45 153t-131 56q-168 0 -178 -209z" />
<glyph unicode="&#xeb;" horiz-adv-x="1081" d="M72 500q0 261 127 396.5t360 135.5q229 0 345 -124t116 -382v-92q0 -22 -25 -22h-616q6 -122 80 -169.5t229 -47.5q120 0 250 24l23 -213q-187 -35 -338 -35q-281 0 -416 129q-135 130 -135 400zM182 1339v23q0 69 33.5 100t103.5 31h13q69 0 104 -31t35 -100v-23 q0 -131 -139 -131h-13q-70 0 -103.5 31.5t-33.5 99.5zM379 602h354q0 97 -45 153t-131 56q-168 0 -178 -209zM608 1339v23q0 131 140 131h12q70 0 103.5 -31t33.5 -100v-23q0 -68 -33.5 -99.5t-103.5 -31.5h-12q-140 0 -140 131z" />
<glyph unicode="&#xec;" horiz-adv-x="550" d="M16 1425l144 195l375 -348l-103 -127zM129 0v1004h293v-1004h-293z" />
<glyph unicode="&#xed;" horiz-adv-x="550" d="M16 1272l375 348l144 -195l-416 -280zM129 0v1004h293v-1004h-293z" />
<glyph unicode="&#xee;" horiz-adv-x="550" d="M-78 1255l256 295h197l256 -295l-103 -104l-252 201l-251 -201zM129 0v1004h293v-1004h-293z" />
<glyph unicode="&#xef;" horiz-adv-x="550" d="M-82 1339v23q0 69 33.5 100t103.5 31h13q69 0 104 -31t35 -100v-23q0 -131 -139 -131h-13q-70 0 -103.5 31.5t-33.5 99.5zM129 0v1004h293v-1004h-293zM344 1339v23q0 131 139 131h13q70 0 103.5 -31t33.5 -100v-23q0 -68 -33.5 -99.5t-103.5 -31.5h-13q-139 0 -139 131z " />
<glyph unicode="&#xf0;" horiz-adv-x="1167" d="M82 463q0 230 118.5 357.5t311.5 127.5q108 0 217 -53q-51 162 -178 307l-135 -131l-119 119l135 133q-48 44 -156 129q9 9 24.5 24t48 46.5t53.5 52.5t20 20q122 -80 170 -116l143 139l119 -119l-133 -131q177 -166 266.5 -365.5t89.5 -447.5q0 -133 -29.5 -238.5 t-89 -183.5t-157 -120t-226.5 -42q-124 0 -220 37t-155 104t-88.5 155.5t-29.5 195.5zM387 467q0 -124 48.5 -198t146.5 -74q104 0 148 92.5t44 265.5q0 60 -8 158q-89 26 -162 26q-217 0 -217 -270z" />
<glyph unicode="&#xf1;" horiz-adv-x="1173" d="M123 0v1004h254l6 -72q154 100 346 100q71 0 137 -19.5t105 -58.5q86 -83 86 -264v-690h-293v655q0 70 -31 101q-35 32 -127 32q-42 0 -98.5 -9.5t-91.5 -22.5v-756h-293zM231 1235q0 133 58 207t160 74q51 0 108.5 -21.5t108 -43t84.5 -21.5q68 0 86 94l145 -23 q0 -133 -57.5 -206.5t-159.5 -73.5q-65 0 -163.5 43t-137.5 43q-68 0 -86 -95z" />
<glyph unicode="&#xf2;" horiz-adv-x="1163" d="M72 502q0 249 128 389.5t382 140.5t382 -140.5t128 -389.5t-128 -390t-382 -141t-382 141t-128 390zM322 1425l143 195l375 -348l-103 -127zM377 502q0 -158 48 -232.5t157 -74.5q108 0 156 74.5t48 232.5t-48 232.5t-156 74.5q-109 0 -157 -74.5t-48 -232.5z" />
<glyph unicode="&#xf3;" horiz-adv-x="1163" d="M72 502q0 249 128 389.5t382 140.5t382 -140.5t128 -389.5t-128 -390t-382 -141t-382 141t-128 390zM322 1272l374 348l144 -195l-416 -280zM377 502q0 -158 48 -232.5t157 -74.5q108 0 156 74.5t48 232.5t-48 232.5t-156 74.5q-109 0 -157 -74.5t-48 -232.5z" />
<glyph unicode="&#xf4;" horiz-adv-x="1163" d="M72 502q0 249 128 389.5t382 140.5t382 -140.5t128 -389.5t-128 -390t-382 -141t-382 141t-128 390zM227 1255l256 295h197l256 -295l-102 -104l-252 201l-252 -201zM377 502q0 -158 48 -232.5t157 -74.5q108 0 156 74.5t48 232.5t-48 232.5t-156 74.5q-109 0 -157 -74.5 t-48 -232.5z" />
<glyph unicode="&#xf5;" horiz-adv-x="1163" d="M72 502q0 249 128 389.5t382 140.5t382 -140.5t128 -389.5t-128 -390t-382 -141t-382 141t-128 390zM207 1235q0 133 57.5 207t159.5 74q51 0 108.5 -21.5t108 -43t84.5 -21.5q68 0 86 94l145 -23q0 -133 -57.5 -206.5t-159.5 -73.5q-65 0 -163.5 43t-137.5 43 q-68 0 -86 -95zM377 502q0 -158 48 -232.5t157 -74.5q108 0 156 74.5t48 232.5t-48 232.5t-156 74.5q-109 0 -157 -74.5t-48 -232.5z" />
<glyph unicode="&#xf6;" horiz-adv-x="1163" d="M72 502q0 249 128 389.5t382 140.5t382 -140.5t128 -389.5t-128 -390t-382 -141t-382 141t-128 390zM223 1339v23q0 69 33.5 100t103.5 31h13q69 0 104 -31t35 -100v-23q0 -131 -139 -131h-13q-70 0 -103.5 31.5t-33.5 99.5zM377 502q0 -158 48 -232.5t157 -74.5 q108 0 156 74.5t48 232.5t-48 232.5t-156 74.5q-109 0 -157 -74.5t-48 -232.5zM649 1339v23q0 131 139 131h13q70 0 103.5 -31t33.5 -100v-23q0 -68 -33.5 -99.5t-103.5 -31.5h-13q-139 0 -139 131z" />
<glyph unicode="&#xf7;" d="M231 567v193h766v-193h-766zM475 250v26q0 66 32 95.5t101 29.5h15q69 0 102 -29.5t33 -95.5v-26q0 -66 -33 -96.5t-102 -30.5h-15q-68 0 -100.5 30t-32.5 97zM475 1051v26q0 66 32 95.5t101 29.5h15q69 0 102 -29.5t33 -95.5v-26q0 -127 -135 -127h-15 q-68 0 -100.5 30.5t-32.5 96.5z" />
<glyph unicode="&#xf8;" horiz-adv-x="1163" d="M72 502q0 249 128 389.5t382 140.5q62 0 106 -8l55 152h172l-71 -197q124 -60 186 -182.5t62 -294.5q0 -249 -128 -390t-382 -141q-58 0 -107 9l-55 -152h-172l71 197q-124 59 -185.5 182t-61.5 295zM377 502q0 -143 39 -217l192 522q-8 2 -26 2q-109 0 -157 -74.5 t-48 -232.5zM555 195h27q108 0 156 74.5t48 232.5q0 145 -38 217z" />
<glyph unicode="&#xf9;" horiz-adv-x="1165" d="M117 313v691h293v-650q0 -76 30 -106q36 -33 127 -33q94 0 183 29v760h292v-1004h-254l-8 68q-155 -97 -336 -97q-71 0 -136.5 19.5t-104.5 58.5q-86 83 -86 264zM324 1425l143 195l375 -348l-103 -127z" />
<glyph unicode="&#xfa;" horiz-adv-x="1165" d="M117 313v691h293v-650q0 -76 30 -106q36 -33 127 -33q94 0 183 29v760h292v-1004h-254l-8 68q-155 -97 -336 -97q-71 0 -136.5 19.5t-104.5 58.5q-86 83 -86 264zM324 1272l374 348l144 -195l-416 -280z" />
<glyph unicode="&#xfb;" horiz-adv-x="1165" d="M117 313v691h293v-650q0 -76 30 -106q36 -33 127 -33q94 0 183 29v760h292v-1004h-254l-8 68q-155 -97 -336 -97q-71 0 -136.5 19.5t-104.5 58.5q-86 83 -86 264zM227 1255l256 295h197l256 -295l-102 -104l-252 201l-252 -201z" />
<glyph unicode="&#xfc;" horiz-adv-x="1165" d="M117 313v691h293v-650q0 -76 30 -106q36 -33 127 -33q94 0 183 29v760h292v-1004h-254l-8 68q-155 -97 -336 -97q-71 0 -136.5 19.5t-104.5 58.5q-86 83 -86 264zM225 1339v23q0 69 33.5 100t103.5 31h13q69 0 104 -31t35 -100v-23q0 -131 -139 -131h-13 q-70 0 -103.5 31.5t-33.5 99.5zM651 1339v23q0 131 140 131h12q70 0 103.5 -31t33.5 -100v-23q0 -68 -33.5 -99.5t-103.5 -31.5h-12q-140 0 -140 131z" />
<glyph unicode="&#xfd;" horiz-adv-x="1169" d="M117 313v691h293v-650q0 -70 30 -100q36 -33 125 -33q40 0 96 11.5t93 25.5v746h293v-961q0 -138 -21.5 -233t-74 -164.5t-143 -102t-226.5 -32.5q-132 0 -256 26l-21 217q125 -22 230 -22q123 0 170 47q49 46 49 162v122q-144 -81 -316 -81q-156 0 -233 77 q-88 88 -88 254zM362 1272l375 348l144 -195l-416 -280z" />
<glyph unicode="&#xfe;" horiz-adv-x="1146" d="M123 -461v1925h293v-514q140 82 284 82q151 0 240 -86q135 -132 135 -438q0 -144 -28.5 -249.5t-82 -167.5t-123 -91t-157.5 -29q-148 0 -268 74v-506h-293zM416 231q66 -28 182 -28q64 0 99.5 27t53 94t17.5 188q0 161 -39 223t-139 62q-80 0 -174 -27v-539z" />
<glyph unicode="&#xff;" horiz-adv-x="1169" d="M117 313v691h293v-650q0 -70 30 -100q36 -33 125 -33q40 0 96 11.5t93 25.5v746h293v-961q0 -138 -21.5 -233t-74 -164.5t-143 -102t-226.5 -32.5q-132 0 -256 26l-21 217q125 -22 230 -22q123 0 170 47q49 46 49 162v122q-144 -81 -316 -81q-156 0 -233 77 q-88 88 -88 254zM227 1339v23q0 69 34 100t104 31h12q69 0 104 -31t35 -100v-23q0 -131 -139 -131h-12q-70 0 -104 31.5t-34 99.5zM653 1339v23q0 131 140 131h12q70 0 103.5 -31t33.5 -100v-23q0 -68 -33.5 -99.5t-103.5 -31.5h-12q-140 0 -140 131z" />
<glyph unicode="&#x152;" horiz-adv-x="2007" d="M92 707q0 365 174 536q84 85 220 121.5t341 36.5h1084l-25 -230h-602v-340h481v-243h-481v-359h637v-229h-1145q-364 0 -516 158q-168 168 -168 549zM424 707q0 -263 76 -375q87 -125 297 -125h168v987h-125q-120 0 -191.5 -21t-118.5 -71q-106 -115 -106 -395z" />
<glyph unicode="&#x153;" horiz-adv-x="1796" d="M72 502q0 249 128 389.5t382 140.5q224 0 350 -117q123 117 342 117q230 0 345.5 -124t115.5 -382v-92q0 -22 -25 -22h-616q4 -106 59 -156q64 -61 254 -61q88 0 235 22l23 -213q-176 -33 -328 -33q-271 0 -403 117q-126 -117 -352 -117q-254 0 -382 141t-128 390z M377 502q0 -158 48 -232.5t157 -74.5q104 0 151.5 68t52.5 212v27q0 158 -48 232.5t-156 74.5q-109 0 -157 -74.5t-48 -232.5zM1094 602h354q0 97 -45 153t-131 56q-168 0 -178 -209z" />
<glyph unicode="&#x178;" horiz-adv-x="1355" d="M25 1401h360l307 -565l320 565h319l-504 -832v-569h-319v571zM319 1749v23q0 69 34 100t104 31h12q69 0 104 -31t35 -100v-23q0 -131 -139 -131h-12q-70 0 -104 31.5t-34 99.5zM745 1749v23q0 131 140 131h12q70 0 103.5 -31t33.5 -100v-23q0 -68 -33.5 -99.5 t-103.5 -31.5h-12q-140 0 -140 131z" />
<glyph unicode="&#x2c6;" horiz-adv-x="876" d="M84 1255l256 295h197l256 -295l-103 -104l-252 201l-252 -201z" />
<glyph unicode="&#x2dc;" horiz-adv-x="876" d="M63 1235q0 133 58 207t160 74q51 0 108.5 -21.5t108 -43t84.5 -21.5q68 0 86 94l145 -23q0 -133 -57.5 -206.5t-159.5 -73.5q-65 0 -163.5 43t-137.5 43q-68 0 -86 -95z" />
<glyph unicode="&#x2000;" horiz-adv-x="1029" />
<glyph unicode="&#x2001;" horiz-adv-x="2058" />
<glyph unicode="&#x2002;" horiz-adv-x="1029" />
<glyph unicode="&#x2003;" horiz-adv-x="2058" />
<glyph unicode="&#x2004;" horiz-adv-x="686" />
<glyph unicode="&#x2005;" horiz-adv-x="514" />
<glyph unicode="&#x2006;" horiz-adv-x="343" />
<glyph unicode="&#x2007;" horiz-adv-x="343" />
<glyph unicode="&#x2008;" horiz-adv-x="257" />
<glyph unicode="&#x2009;" horiz-adv-x="411" />
<glyph unicode="&#x200a;" horiz-adv-x="114" />
<glyph unicode="&#x2010;" horiz-adv-x="684" d="M94 410v243h496v-243h-496z" />
<glyph unicode="&#x2011;" horiz-adv-x="684" d="M94 410v243h496v-243h-496z" />
<glyph unicode="&#x2012;" horiz-adv-x="684" d="M94 410v243h496v-243h-496z" />
<glyph unicode="&#x2013;" horiz-adv-x="1024" d="M0 410v243h1024v-243h-1024z" />
<glyph unicode="&#x2014;" horiz-adv-x="2048" d="M0 410v243h2048v-243h-2048z" />
<glyph unicode="&#x2018;" horiz-adv-x="473" d="M90 977v55q0 103 14 222.5t31 172.5h148v-290q67 -23 93.5 -58.5t26.5 -101.5q0 -74 -38 -114t-111 -40h-14q-73 0 -111.5 40t-38.5 114z" />
<glyph unicode="&#x2019;" horiz-adv-x="473" d="M70 1272v2q0 74 38 113.5t111 39.5h14q152 0 152 -153v-55q0 -255 -33 -347q-15 -49 -80 -49h-82v291q-67 23 -93.5 58.5t-26.5 99.5z" />
<glyph unicode="&#x201a;" horiz-adv-x="473" d="M70 125q0 74 38 114t111 40h14q73 0 111.5 -40t38.5 -114v-55q0 -103 -14 -223t-31 -173h-148v291q-67 23 -93.5 58.5t-26.5 101.5z" />
<glyph unicode="&#x201c;" horiz-adv-x="890" d="M90 977v55q0 103 14 222.5t31 172.5h148v-290q67 -23 93.5 -58.5t26.5 -101.5q0 -74 -38 -114t-111 -40h-14q-73 0 -111.5 40t-38.5 114zM508 977v55q0 103 14 222.5t31 172.5h147v-290q67 -23 94 -58.5t27 -101.5q0 -74 -38 -114t-111 -40h-15q-73 0 -111 40t-38 114z " />
<glyph unicode="&#x201d;" horiz-adv-x="890" d="M70 1274q0 74 38 113.5t111 39.5h14q73 0 111.5 -39.5t38.5 -113.5v-55q0 -103 -14 -223t-31 -173h-148v291q-67 23 -93.5 58.5t-26.5 101.5zM487 1274q0 74 38.5 113.5t111.5 39.5h14q73 0 111.5 -39.5t38.5 -113.5v-55q0 -103 -14 -223t-31 -173h-148v291 q-67 23 -94 58.5t-27 101.5z" />
<glyph unicode="&#x201e;" horiz-adv-x="890" d="M70 125q0 74 38 114t111 40h14q73 0 111.5 -40t38.5 -114v-55q0 -103 -14 -223t-31 -173h-148v291q-67 23 -93.5 58.5t-26.5 101.5zM487 125q0 74 38.5 114t111.5 40h14q73 0 111.5 -40t38.5 -114v-55q0 -103 -14 -223t-31 -173h-148v291q-67 23 -94 58.5t-27 101.5z" />
<glyph unicode="&#x2022;" horiz-adv-x="772" d="M86 674v51q0 141 71 203.5t216 62.5h26q145 0 216 -62.5t71 -203.5v-51q0 -141 -71 -203.5t-216 -62.5h-26q-145 0 -216 62.5t-71 203.5z" />
<glyph unicode="&#x2026;" horiz-adv-x="1464" d="M86 113v24q0 75 37.5 108.5t112.5 33.5h16q75 0 111 -33.5t36 -108.5v-24q0 -75 -36 -108.5t-111 -33.5h-16q-75 0 -112.5 33.5t-37.5 108.5zM575 113v24q0 75 37.5 108.5t112.5 33.5h14q75 0 112.5 -33.5t37.5 -108.5v-24q0 -75 -37.5 -108.5t-112.5 -33.5h-14 q-75 0 -112.5 33.5t-37.5 108.5zM1065 113v24q0 75 36 108.5t111 33.5h17q75 0 112 -33.5t37 -108.5v-24q0 -75 -37 -108.5t-112 -33.5h-17q-75 0 -111 33.5t-36 108.5z" />
<glyph unicode="&#x202f;" horiz-adv-x="411" />
<glyph unicode="&#x2039;" horiz-adv-x="700" d="M92 535q0 36 17 65t57 72l303 329l121 -114l-240 -352l240 -353l-121 -114l-303 329q-39 43 -56.5 72.5t-17.5 65.5z" />
<glyph unicode="&#x203a;" horiz-adv-x="700" d="M111 182l239 353l-239 352l120 114l304 -329q39 -42 56 -71.5t17 -65.5t-17 -66t-56 -72l-304 -329z" />
<glyph unicode="&#x205f;" horiz-adv-x="514" />
<glyph unicode="&#x20ac;" d="M18 451v143l154 20q-2 25 -2 103h-152v145l164 21q88 544 609 544q73 0 166 -13t161 -34v-229q-155 31 -270 31q-161 0 -238.5 -71t-99.5 -228h309v-166h-323q0 -74 2 -103h321v-163h-293q55 -234 336 -234q127 0 293 35v-234q-158 -47 -340 -47q-273 0 -423 121 t-199 359h-175z" />
<glyph unicode="&#x2122;" horiz-adv-x="1527" d="M25 1253v148h610v-148h-205v-532h-205v532h-200zM719 721v680h180l176 -383l180 383h175v-680h-185v317l-110 -225h-123l-117 229v-321h-176z" />
<glyph unicode="&#x25fc;" horiz-adv-x="1003" d="M0 0v1004h1004v-1004h-1004z" />
</font>
</defs>
</svg>
